<?xml version="1.0" encoding="utf-8"?>
<!-- Svg Vector Icons : http://www.onlinewebfonts.com/icon -->
<!DOCTYPE svg PUBLIC "-//W3C//DTD SVG 1.1//EN" "http://www.w3.org/Graphics/SVG/1.1/DTD/svg11.dtd">
<svg fill="#FFFFFF"  version="1.1" xmlns="http://www.w3.org/2000/svg" xmlns:xlink="http://www.w3.org/1999/xlink" x="0px" y="0px" viewBox="0 0 1000 1000" enable-background="new 0 0 1000 1000" xml:space="preserve">
<metadata> Svg Vector Icons : http://www.onlinewebfonts.com/icon </metadata>
<g><path d="M810.8,962.5L810.8,962.5c-15.7,0-30.5-6.4-40.7-17.7c-7.4-8.1-20.4-17.1-25.6-17.7c-5.1,0.6-18.3,9.6-25.4,17.4c-10.1,11-24.9,17.4-40.4,17.4c-7.5,0-14.7-1.5-21.4-4.4l-1.7-0.8l-55.6-31.1l-1.6-1.2c-20.4-14.3-27.9-41.1-17.9-63.9c1.1-2.7,2.7-8,2.7-10.8c0-16.2-13.2-29.3-29.3-29.3h-1.6c-0.2,0-0.4,0-0.6,0c-22.2,0-40.4-17-45.2-42.3c-0.5-2.8-5-27.2-5-47.6c0-20.4,4.5-44.9,5-47.6c4.8-25.5,23.3-42.6,45.8-42.3h1.6c16.2,0,29.3-13.2,29.3-29.3c0-2.9-1.6-8.1-2.7-10.8c-10-22.8-2.5-49.7,18.1-63.9l1.7-1.2l58.7-32.2l1.8-0.8c6.5-2.8,13.6-4.2,20.9-4.2c15.3,0,30,6.1,40.1,16.9c7.3,7.6,20.1,16.1,25,16.6c4.9-0.5,17.6-8.8,24.9-16.3c10.1-10.5,24.6-16.5,39.8-16.5c7.5,0,14.7,1.5,21.3,4.4l1.8,0.8l56.7,31.5l1.7,1.2c20.3,14.2,27.9,41,17.9,63.8c-1.1,2.7-2.7,8-2.7,10.8c0,16.2,13.2,29.3,29.3,29.3h1.7c0.2,0,0.4,0,0.6,0c22.2,0,40.4,17,45.2,42.3c0.5,2.7,5,27.2,5,47.6c0,20.6-4.5,44.9-5,47.6c-4.8,25.3-22.9,42.3-45.2,42.3c-0.2,0-0.3,0-0.5,0h-1.7c-16.2,0-29.3,13.2-29.3,29.3c0,2.9,1.6,8.1,2.7,10.8c10,22.7,2.5,49.6-18,63.9l-1.7,1.2l-57.6,31.8l-1.8,0.8C825.3,961.1,818.2,962.5,810.8,962.5z M810.1,908.1c0.1,0,0.3,0.1,0.4,0.1l50-27.6c-2-5-6.5-17.6-6.5-30.9c0-44.2,34.5-80.5,78-83.4c1.3-7.3,3.8-23.7,3.8-35.8c0-11.7-2.3-27.6-3.8-35.8c-43.5-2.9-78-39.2-78-83.4c0-13.3,4.6-26.1,6.5-30.9l-49.2-27.3c-0.4,0-0.7,0.1-0.8,0.2c-4.4,4.5-33.3,32.6-63.7,32.6c-30.9,0-60-29-64.1-33.3c-0.2-0.1-0.5-0.2-0.8-0.2l-51,28c2,5,6.5,17.6,6.5,30.9c0,44.2-34.5,80.5-78,83.4c-1.5,8.2-3.8,24.1-3.8,35.8c0,11.7,2.3,27.6,3.8,35.8c43.5,2.9,78,39.2,78,83.4c0,13.4-4.6,26.1-6.5,30.9l48.1,26.9c0.2,0,0.3-0.1,0.5-0.1c4.5-4.8,33.6-34.6,65.1-34.6C776.3,872.8,805.8,903.5,810.1,908.1z"/><path d="M744.6,821.3c-50.2,0-91.1-40.9-91.1-91.1c0-50.2,40.9-91.1,91.1-91.1c50.2,0,91.1,40.9,91.1,91.1C835.7,780.5,794.8,821.3,744.6,821.3z M744.6,693.4c-20.3,0-36.8,16.5-36.8,36.8c0,20.3,16.5,36.8,36.8,36.8c20.3,0,36.8-16.5,36.8-36.8C781.4,709.9,764.9,693.4,744.6,693.4z"/><path d="M656.3,576.1"/><path d="M834.8,615.7"/><path d="M41,951.9c-17.1,0-31-13.9-31-31c0-193.8,120.4-366.4,292.7-419.7c16.4-5.1,33.7,4.1,38.8,20.5c5.1,16.4-4.1,33.7-20.5,38.8C174.4,605.9,72,754.1,72,920.9C72,938,58.2,951.9,41,951.9z M508.8,503.6c-128.5,0-233.1-104.6-233.1-233.1c0-128.5,104.6-233.1,233.1-233.1c128.5,0,233.1,104.6,233.1,233.1C741.9,399.1,637.4,503.6,508.8,503.6z M508.8,99.5c-94.3,0-171.1,76.7-171.1,171c0,94.3,76.8,171.1,171.1,171.1c94.3,0,171.1-76.7,171.1-171.1C679.9,176.2,603.1,99.5,508.8,99.5z"/></g>
</svg>