<?xml version="1.0" encoding="UTF-8"?>
<!DOCTYPE svg PUBLIC "-//W3C//DTD SVG 1.1//EN" "http://www.w3.org/Graphics/SVG/1.1/DTD/svg11.dtd">
<svg width="160mm" height="90mm" viewBox="0 0 16000 9000" version="1.1" xmlns="http://www.w3.org/2000/svg" xmlns:xlink="http://www.w3.org/1999/xlink" stroke-width="28.222" stroke-linejoin="round" xml:space="preserve">
 <path fill="rgb(255,255,255)" stroke="none" d="M 7988,9004 L 0,9004 0,0 15975,0 15975,9004 7988,9004 Z"/>
 <path fill="none" stroke="rgb(179,179,179)" stroke-linejoin="round" d="M 9303,7713 L 2951,7713 2951,180 15656,180 15656,7713 9303,7713 Z"/>
 <path fill="none" stroke="rgb(179,179,179)" stroke-linejoin="round" d="M 2951,179 L 2951,7711"/>
 <path fill="none" stroke="rgb(179,179,179)" stroke-linejoin="round" d="M 3407,179 L 3407,7711"/>
 <path fill="none" stroke="rgb(179,179,179)" stroke-linejoin="round" d="M 3863,179 L 3863,7711"/>
 <path fill="none" stroke="rgb(179,179,179)" stroke-linejoin="round" d="M 4319,179 L 4319,7711"/>
 <path fill="none" stroke="rgb(179,179,179)" stroke-linejoin="round" d="M 4775,179 L 4775,7711"/>
 <path fill="none" stroke="rgb(179,179,179)" stroke-linejoin="round" d="M 5231,179 L 5231,7711"/>
 <path fill="none" stroke="rgb(179,179,179)" stroke-linejoin="round" d="M 5687,179 L 5687,7711"/>
 <path fill="none" stroke="rgb(179,179,179)" stroke-linejoin="round" d="M 6143,179 L 6143,7711"/>
 <path fill="none" stroke="rgb(179,179,179)" stroke-linejoin="round" d="M 6599,179 L 6599,7711"/>
 <path fill="none" stroke="rgb(179,179,179)" stroke-linejoin="round" d="M 7056,179 L 7056,7711"/>
 <path fill="none" stroke="rgb(179,179,179)" stroke-linejoin="round" d="M 7512,179 L 7512,7711"/>
 <path fill="none" stroke="rgb(179,179,179)" stroke-linejoin="round" d="M 7968,179 L 7968,7711"/>
 <path fill="none" stroke="rgb(179,179,179)" stroke-linejoin="round" d="M 8423,179 L 8423,7711"/>
 <path fill="none" stroke="rgb(179,179,179)" stroke-linejoin="round" d="M 8879,179 L 8879,7711"/>
 <path fill="none" stroke="rgb(179,179,179)" stroke-linejoin="round" d="M 9335,179 L 9335,7711"/>
 <path fill="none" stroke="rgb(179,179,179)" stroke-linejoin="round" d="M 9791,179 L 9791,7711"/>
 <path fill="none" stroke="rgb(179,179,179)" stroke-linejoin="round" d="M 10247,179 L 10247,7711"/>
 <path fill="none" stroke="rgb(179,179,179)" stroke-linejoin="round" d="M 10703,179 L 10703,7711"/>
 <path fill="none" stroke="rgb(179,179,179)" stroke-linejoin="round" d="M 11160,179 L 11160,7711"/>
 <path fill="none" stroke="rgb(179,179,179)" stroke-linejoin="round" d="M 11616,179 L 11616,7711"/>
 <path fill="none" stroke="rgb(179,179,179)" stroke-linejoin="round" d="M 12072,179 L 12072,7711"/>
 <path fill="none" stroke="rgb(179,179,179)" stroke-linejoin="round" d="M 12528,179 L 12528,7711"/>
 <path fill="none" stroke="rgb(179,179,179)" stroke-linejoin="round" d="M 12984,179 L 12984,7711"/>
 <path fill="none" stroke="rgb(179,179,179)" stroke-linejoin="round" d="M 13440,179 L 13440,7711"/>
 <path fill="none" stroke="rgb(179,179,179)" stroke-linejoin="round" d="M 13896,179 L 13896,7711"/>
 <path fill="none" stroke="rgb(179,179,179)" stroke-linejoin="round" d="M 14352,179 L 14352,7711"/>
 <path fill="none" stroke="rgb(179,179,179)" stroke-linejoin="round" d="M 14808,179 L 14808,7711"/>
 <path fill="none" stroke="rgb(179,179,179)" stroke-linejoin="round" d="M 15265,179 L 15265,7711"/>
 <path fill="none" stroke="rgb(179,179,179)" stroke-linejoin="round" d="M 2801,7711 L 2951,7711"/>
 <path fill="none" stroke="rgb(179,179,179)" stroke-linejoin="round" d="M 2801,7711 L 2951,7711"/>
 <path fill="none" stroke="rgb(179,179,179)" stroke-linejoin="round" d="M 2801,6205 L 2951,6205"/>
 <path fill="none" stroke="rgb(179,179,179)" stroke-linejoin="round" d="M 2801,6205 L 2951,6205"/>
 <path fill="none" stroke="rgb(179,179,179)" stroke-linejoin="round" d="M 2801,4698 L 2951,4698"/>
 <path fill="none" stroke="rgb(179,179,179)" stroke-linejoin="round" d="M 2801,4698 L 2951,4698"/>
 <path fill="none" stroke="rgb(179,179,179)" stroke-linejoin="round" d="M 2801,3192 L 2951,3192"/>
 <path fill="none" stroke="rgb(179,179,179)" stroke-linejoin="round" d="M 2801,3192 L 2951,3192"/>
 <path fill="none" stroke="rgb(179,179,179)" stroke-linejoin="round" d="M 2801,1685 L 2951,1685"/>
 <path fill="none" stroke="rgb(179,179,179)" stroke-linejoin="round" d="M 2801,1685 L 2951,1685"/>
 <path fill="none" stroke="rgb(179,179,179)" stroke-linejoin="round" d="M 2801,179 L 2951,179"/>
 <path fill="none" stroke="rgb(179,179,179)" stroke-linejoin="round" d="M 2801,179 L 2951,179"/>
 <path fill="none" stroke="rgb(179,179,179)" stroke-linejoin="round" d="M 2951,7711 L 2951,179"/>
 <path fill="none" stroke="rgb(179,179,179)" stroke-linejoin="round" d="M 2951,7861 L 2951,7711"/>
 <path fill="none" stroke="rgb(179,179,179)" stroke-linejoin="round" d="M 2951,7861 L 2951,7711"/>
 <path fill="none" stroke="rgb(179,179,179)" stroke-linejoin="round" d="M 3407,7861 L 3407,7711"/>
 <path fill="none" stroke="rgb(179,179,179)" stroke-linejoin="round" d="M 3407,7861 L 3407,7711"/>
 <path fill="none" stroke="rgb(179,179,179)" stroke-linejoin="round" d="M 3863,7861 L 3863,7711"/>
 <path fill="none" stroke="rgb(179,179,179)" stroke-linejoin="round" d="M 3863,7861 L 3863,7711"/>
 <path fill="none" stroke="rgb(179,179,179)" stroke-linejoin="round" d="M 4319,7861 L 4319,7711"/>
 <path fill="none" stroke="rgb(179,179,179)" stroke-linejoin="round" d="M 4319,7861 L 4319,7711"/>
 <path fill="none" stroke="rgb(179,179,179)" stroke-linejoin="round" d="M 4775,7861 L 4775,7711"/>
 <path fill="none" stroke="rgb(179,179,179)" stroke-linejoin="round" d="M 4775,7861 L 4775,7711"/>
 <path fill="none" stroke="rgb(179,179,179)" stroke-linejoin="round" d="M 5231,7861 L 5231,7711"/>
 <path fill="none" stroke="rgb(179,179,179)" stroke-linejoin="round" d="M 5231,7861 L 5231,7711"/>
 <path fill="none" stroke="rgb(179,179,179)" stroke-linejoin="round" d="M 5687,7861 L 5687,7711"/>
 <path fill="none" stroke="rgb(179,179,179)" stroke-linejoin="round" d="M 5687,7861 L 5687,7711"/>
 <path fill="none" stroke="rgb(179,179,179)" stroke-linejoin="round" d="M 6143,7861 L 6143,7711"/>
 <path fill="none" stroke="rgb(179,179,179)" stroke-linejoin="round" d="M 6143,7861 L 6143,7711"/>
 <path fill="none" stroke="rgb(179,179,179)" stroke-linejoin="round" d="M 6599,7861 L 6599,7711"/>
 <path fill="none" stroke="rgb(179,179,179)" stroke-linejoin="round" d="M 6599,7861 L 6599,7711"/>
 <path fill="none" stroke="rgb(179,179,179)" stroke-linejoin="round" d="M 7056,7861 L 7056,7711"/>
 <path fill="none" stroke="rgb(179,179,179)" stroke-linejoin="round" d="M 7056,7861 L 7056,7711"/>
 <path fill="none" stroke="rgb(179,179,179)" stroke-linejoin="round" d="M 7512,7861 L 7512,7711"/>
 <path fill="none" stroke="rgb(179,179,179)" stroke-linejoin="round" d="M 7512,7861 L 7512,7711"/>
 <path fill="none" stroke="rgb(179,179,179)" stroke-linejoin="round" d="M 7968,7861 L 7968,7711"/>
 <path fill="none" stroke="rgb(179,179,179)" stroke-linejoin="round" d="M 7968,7861 L 7968,7711"/>
 <path fill="none" stroke="rgb(179,179,179)" stroke-linejoin="round" d="M 8423,7861 L 8423,7711"/>
 <path fill="none" stroke="rgb(179,179,179)" stroke-linejoin="round" d="M 8423,7861 L 8423,7711"/>
 <path fill="none" stroke="rgb(179,179,179)" stroke-linejoin="round" d="M 8879,7861 L 8879,7711"/>
 <path fill="none" stroke="rgb(179,179,179)" stroke-linejoin="round" d="M 8879,7861 L 8879,7711"/>
 <path fill="none" stroke="rgb(179,179,179)" stroke-linejoin="round" d="M 9335,7861 L 9335,7711"/>
 <path fill="none" stroke="rgb(179,179,179)" stroke-linejoin="round" d="M 9335,7861 L 9335,7711"/>
 <path fill="none" stroke="rgb(179,179,179)" stroke-linejoin="round" d="M 9791,7861 L 9791,7711"/>
 <path fill="none" stroke="rgb(179,179,179)" stroke-linejoin="round" d="M 9791,7861 L 9791,7711"/>
 <path fill="none" stroke="rgb(179,179,179)" stroke-linejoin="round" d="M 10247,7861 L 10247,7711"/>
 <path fill="none" stroke="rgb(179,179,179)" stroke-linejoin="round" d="M 10247,7861 L 10247,7711"/>
 <path fill="none" stroke="rgb(179,179,179)" stroke-linejoin="round" d="M 10703,7861 L 10703,7711"/>
 <path fill="none" stroke="rgb(179,179,179)" stroke-linejoin="round" d="M 10703,7861 L 10703,7711"/>
 <path fill="none" stroke="rgb(179,179,179)" stroke-linejoin="round" d="M 11160,7861 L 11160,7711"/>
 <path fill="none" stroke="rgb(179,179,179)" stroke-linejoin="round" d="M 11160,7861 L 11160,7711"/>
 <path fill="none" stroke="rgb(179,179,179)" stroke-linejoin="round" d="M 11616,7861 L 11616,7711"/>
 <path fill="none" stroke="rgb(179,179,179)" stroke-linejoin="round" d="M 11616,7861 L 11616,7711"/>
 <path fill="none" stroke="rgb(179,179,179)" stroke-linejoin="round" d="M 12072,7861 L 12072,7711"/>
 <path fill="none" stroke="rgb(179,179,179)" stroke-linejoin="round" d="M 12072,7861 L 12072,7711"/>
 <path fill="none" stroke="rgb(179,179,179)" stroke-linejoin="round" d="M 12528,7861 L 12528,7711"/>
 <path fill="none" stroke="rgb(179,179,179)" stroke-linejoin="round" d="M 12528,7861 L 12528,7711"/>
 <path fill="none" stroke="rgb(179,179,179)" stroke-linejoin="round" d="M 12984,7861 L 12984,7711"/>
 <path fill="none" stroke="rgb(179,179,179)" stroke-linejoin="round" d="M 12984,7861 L 12984,7711"/>
 <path fill="none" stroke="rgb(179,179,179)" stroke-linejoin="round" d="M 13440,7861 L 13440,7711"/>
 <path fill="none" stroke="rgb(179,179,179)" stroke-linejoin="round" d="M 13440,7861 L 13440,7711"/>
 <path fill="none" stroke="rgb(179,179,179)" stroke-linejoin="round" d="M 13896,7861 L 13896,7711"/>
 <path fill="none" stroke="rgb(179,179,179)" stroke-linejoin="round" d="M 13896,7861 L 13896,7711"/>
 <path fill="none" stroke="rgb(179,179,179)" stroke-linejoin="round" d="M 14352,7861 L 14352,7711"/>
 <path fill="none" stroke="rgb(179,179,179)" stroke-linejoin="round" d="M 14352,7861 L 14352,7711"/>
 <path fill="none" stroke="rgb(179,179,179)" stroke-linejoin="round" d="M 14808,7861 L 14808,7711"/>
 <path fill="none" stroke="rgb(179,179,179)" stroke-linejoin="round" d="M 14808,7861 L 14808,7711"/>
 <path fill="none" stroke="rgb(179,179,179)" stroke-linejoin="round" d="M 15265,7861 L 15265,7711"/>
 <path fill="none" stroke="rgb(179,179,179)" stroke-linejoin="round" d="M 15265,7861 L 15265,7711"/>
 <path fill="none" stroke="rgb(179,179,179)" stroke-linejoin="round" d="M 2951,7711 L 15656,7711"/>
 <path fill="rgb(255,66,14)" stroke="none" d="M 13896,1309 L 13896,555 15656,555 15656,1309 13896,1309 Z"/>
 <path fill="rgb(255,66,14)" stroke="none" d="M 10964,2815 L 10964,2062 13831,2062 13831,2815 10964,2815 Z"/>
 <path fill="rgb(255,66,14)" stroke="none" d="M 4775,4322 L 4775,3569 10703,3569 10703,4322 4775,4322 Z"/>
 <path fill="rgb(255,66,14)" stroke="none" d="M 3863,5828 L 3863,5075 4579,5075 4579,5828 3863,5828 Z"/>
 <path fill="rgb(255,66,14)" stroke="none" d="M 2951,7335 L 2951,6581 3667,6581 3667,7335 2951,7335 Z"/>
 <text class="TextShape"><tspan class="TextParagraph" font-family="Liberation Sans, sans-serif" font-size="353px" font-weight="400"><tspan class="TextPosition" x="320" y="7079"><tspan fill="rgb(0,0,0)" stroke="none">Documentación</tspan></tspan></tspan></text>
 <text class="TextShape"><tspan class="TextParagraph" font-family="Liberation Sans, sans-serif" font-size="353px" font-weight="400"><tspan class="TextPosition" x="1193" y="5572"><tspan fill="rgb(0,0,0)" stroke="none">Definición</tspan></tspan></tspan></text>
 <text class="TextShape"><tspan class="TextParagraph" font-family="Liberation Sans, sans-serif" font-size="353px" font-weight="400"><tspan class="TextPosition" x="1352" y="4065"><tspan fill="rgb(0,0,0)" stroke="none">Frontend</tspan></tspan></tspan></text>
 <text class="TextShape"><tspan class="TextParagraph" font-family="Liberation Sans, sans-serif" font-size="353px" font-weight="400"><tspan class="TextPosition" x="1352" y="2559"><tspan fill="rgb(0,0,0)" stroke="none">Backend</tspan></tspan></tspan></text>
 <text class="TextShape"><tspan class="TextParagraph" font-family="Liberation Sans, sans-serif" font-size="353px" font-weight="400"><tspan class="TextPosition" x="1563" y="1052"><tspan fill="rgb(0,0,0)" stroke="none">Testing</tspan></tspan></tspan></text>
 <text class="TextShape" transform="rotate(-44.9 2332 8785)"><tspan class="TextParagraph" font-family="Liberation Sans, sans-serif" font-size="247px" font-weight="400"><tspan class="TextPosition" x="2332" y="8785"><tspan fill="rgb(0,0,0)" stroke="none">30/08/21</tspan></tspan></tspan></text>
 <text class="TextShape" transform="rotate(-44.9 2788 8785)"><tspan class="TextParagraph" font-family="Liberation Sans, sans-serif" font-size="247px" font-weight="400"><tspan class="TextPosition" x="2788" y="8785"><tspan fill="rgb(0,0,0)" stroke="none">06/09/21</tspan></tspan></tspan></text>
 <text class="TextShape" transform="rotate(-44.9 3244 8785)"><tspan class="TextParagraph" font-family="Liberation Sans, sans-serif" font-size="247px" font-weight="400"><tspan class="TextPosition" x="3244" y="8785"><tspan fill="rgb(0,0,0)" stroke="none">13/09/21</tspan></tspan></tspan></text>
 <text class="TextShape" transform="rotate(-44.9 3700 8785)"><tspan class="TextParagraph" font-family="Liberation Sans, sans-serif" font-size="247px" font-weight="400"><tspan class="TextPosition" x="3700" y="8785"><tspan fill="rgb(0,0,0)" stroke="none">20/09/21</tspan></tspan></tspan></text>
 <text class="TextShape" transform="rotate(-44.9 4156 8785)"><tspan class="TextParagraph" font-family="Liberation Sans, sans-serif" font-size="247px" font-weight="400"><tspan class="TextPosition" x="4156" y="8785"><tspan fill="rgb(0,0,0)" stroke="none">27/09/21</tspan></tspan></tspan></text>
 <text class="TextShape" transform="rotate(-44.9 4612 8785)"><tspan class="TextParagraph" font-family="Liberation Sans, sans-serif" font-size="247px" font-weight="400"><tspan class="TextPosition" x="4612" y="8785"><tspan fill="rgb(0,0,0)" stroke="none">04/10/21</tspan></tspan></tspan></text>
 <text class="TextShape" transform="rotate(-44.9 5068 8785)"><tspan class="TextParagraph" font-family="Liberation Sans, sans-serif" font-size="247px" font-weight="400"><tspan class="TextPosition" x="5068" y="8785"><tspan fill="rgb(0,0,0)" stroke="none">11/10/21</tspan></tspan></tspan></text>
 <text class="TextShape" transform="rotate(-44.9 5524 8785)"><tspan class="TextParagraph" font-family="Liberation Sans, sans-serif" font-size="247px" font-weight="400"><tspan class="TextPosition" x="5524" y="8785"><tspan fill="rgb(0,0,0)" stroke="none">18/10/21</tspan></tspan></tspan></text>
 <text class="TextShape" transform="rotate(-44.9 5980 8785)"><tspan class="TextParagraph" font-family="Liberation Sans, sans-serif" font-size="247px" font-weight="400"><tspan class="TextPosition" x="5980" y="8785"><tspan fill="rgb(0,0,0)" stroke="none">25/10/21</tspan></tspan></tspan></text>
 <text class="TextShape" transform="rotate(-44.9 6437 8785)"><tspan class="TextParagraph" font-family="Liberation Sans, sans-serif" font-size="247px" font-weight="400"><tspan class="TextPosition" x="6437" y="8785"><tspan fill="rgb(0,0,0)" stroke="none">01/11/21</tspan></tspan></tspan></text>
 <text class="TextShape" transform="rotate(-44.9 6893 8785)"><tspan class="TextParagraph" font-family="Liberation Sans, sans-serif" font-size="247px" font-weight="400"><tspan class="TextPosition" x="6893" y="8785"><tspan fill="rgb(0,0,0)" stroke="none">08/11/21</tspan></tspan></tspan></text>
 <text class="TextShape" transform="rotate(-44.9 7349 8785)"><tspan class="TextParagraph" font-family="Liberation Sans, sans-serif" font-size="247px" font-weight="400"><tspan class="TextPosition" x="7349" y="8785"><tspan fill="rgb(0,0,0)" stroke="none">15/11/21</tspan></tspan></tspan></text>
 <text class="TextShape" transform="rotate(-44.9 7805 8785)"><tspan class="TextParagraph" font-family="Liberation Sans, sans-serif" font-size="247px" font-weight="400"><tspan class="TextPosition" x="7805" y="8785"><tspan fill="rgb(0,0,0)" stroke="none">22/11/21</tspan></tspan></tspan></text>
 <text class="TextShape" transform="rotate(-44.9 8261 8785)"><tspan class="TextParagraph" font-family="Liberation Sans, sans-serif" font-size="247px" font-weight="400"><tspan class="TextPosition" x="8261" y="8785"><tspan fill="rgb(0,0,0)" stroke="none">29/11/21</tspan></tspan></tspan></text>
 <text class="TextShape" transform="rotate(-44.9 8717 8785)"><tspan class="TextParagraph" font-family="Liberation Sans, sans-serif" font-size="247px" font-weight="400"><tspan class="TextPosition" x="8717" y="8785"><tspan fill="rgb(0,0,0)" stroke="none">06/12/21</tspan></tspan></tspan></text>
 <text class="TextShape" transform="rotate(-44.9 9173 8785)"><tspan class="TextParagraph" font-family="Liberation Sans, sans-serif" font-size="247px" font-weight="400"><tspan class="TextPosition" x="9173" y="8785"><tspan fill="rgb(0,0,0)" stroke="none">13/12/21</tspan></tspan></tspan></text>
 <text class="TextShape" transform="rotate(-44.9 9629 8785)"><tspan class="TextParagraph" font-family="Liberation Sans, sans-serif" font-size="247px" font-weight="400"><tspan class="TextPosition" x="9629" y="8785"><tspan fill="rgb(0,0,0)" stroke="none">20/12/21</tspan></tspan></tspan></text>
 <text class="TextShape" transform="rotate(-44.9 10085 8785)"><tspan class="TextParagraph" font-family="Liberation Sans, sans-serif" font-size="247px" font-weight="400"><tspan class="TextPosition" x="10085" y="8785"><tspan fill="rgb(0,0,0)" stroke="none">27/12/21</tspan></tspan></tspan></text>
 <text class="TextShape" transform="rotate(-44.9 10542 8785)"><tspan class="TextParagraph" font-family="Liberation Sans, sans-serif" font-size="247px" font-weight="400"><tspan class="TextPosition" x="10542" y="8785"><tspan fill="rgb(0,0,0)" stroke="none">03/01/22</tspan></tspan></tspan></text>
 <text class="TextShape" transform="rotate(-44.9 10998 8785)"><tspan class="TextParagraph" font-family="Liberation Sans, sans-serif" font-size="247px" font-weight="400"><tspan class="TextPosition" x="10998" y="8785"><tspan fill="rgb(0,0,0)" stroke="none">10/01/22</tspan></tspan></tspan></text>
 <text class="TextShape" transform="rotate(-44.9 11454 8785)"><tspan class="TextParagraph" font-family="Liberation Sans, sans-serif" font-size="247px" font-weight="400"><tspan class="TextPosition" x="11454" y="8785"><tspan fill="rgb(0,0,0)" stroke="none">17/01/22</tspan></tspan></tspan></text>
 <text class="TextShape" transform="rotate(-44.9 11910 8785)"><tspan class="TextParagraph" font-family="Liberation Sans, sans-serif" font-size="247px" font-weight="400"><tspan class="TextPosition" x="11910" y="8785"><tspan fill="rgb(0,0,0)" stroke="none">24/01/22</tspan></tspan></tspan></text>
 <text class="TextShape" transform="rotate(-44.9 12365 8785)"><tspan class="TextParagraph" font-family="Liberation Sans, sans-serif" font-size="247px" font-weight="400"><tspan class="TextPosition" x="12365" y="8785"><tspan fill="rgb(0,0,0)" stroke="none">31/01/22</tspan></tspan></tspan></text>
 <text class="TextShape" transform="rotate(-44.9 12821 8785)"><tspan class="TextParagraph" font-family="Liberation Sans, sans-serif" font-size="247px" font-weight="400"><tspan class="TextPosition" x="12821" y="8785"><tspan fill="rgb(0,0,0)" stroke="none">07/02/22</tspan></tspan></tspan></text>
 <text class="TextShape" transform="rotate(-44.9 13277 8785)"><tspan class="TextParagraph" font-family="Liberation Sans, sans-serif" font-size="247px" font-weight="400"><tspan class="TextPosition" x="13277" y="8785"><tspan fill="rgb(0,0,0)" stroke="none">14/02/22</tspan></tspan></tspan></text>
 <text class="TextShape" transform="rotate(-44.9 13733 8785)"><tspan class="TextParagraph" font-family="Liberation Sans, sans-serif" font-size="247px" font-weight="400"><tspan class="TextPosition" x="13733" y="8785"><tspan fill="rgb(0,0,0)" stroke="none">21/02/22</tspan></tspan></tspan></text>
 <text class="TextShape" transform="rotate(-44.9 14189 8785)"><tspan class="TextParagraph" font-family="Liberation Sans, sans-serif" font-size="247px" font-weight="400"><tspan class="TextPosition" x="14189" y="8785"><tspan fill="rgb(0,0,0)" stroke="none">28/02/22</tspan></tspan></tspan></text>
 <text class="TextShape" transform="rotate(-44.9 14646 8785)"><tspan class="TextParagraph" font-family="Liberation Sans, sans-serif" font-size="247px" font-weight="400"><tspan class="TextPosition" x="14646" y="8785"><tspan fill="rgb(0,0,0)" stroke="none">07/03/22</tspan></tspan></tspan></text>
</svg>